<mxfile host="app.diagrams.net" modified="2023-06-08T14:36:16.933Z" agent="Mozilla/5.0 (X11; Ubuntu; Linux x86_64; rv:109.0) Gecko/20100101 Firefox/113.0" etag="eMRigC_zz7XnyvpRsqPR" version="21.3.7" type="device">
  <diagram id="C5RBs43oDa-KdzZeNtuy" name="Page-1">
    <mxGraphModel dx="2447" dy="966" grid="1" gridSize="10" guides="1" tooltips="1" connect="1" arrows="1" fold="1" page="1" pageScale="1" pageWidth="827" pageHeight="1169" math="0" shadow="0">
      <root>
        <mxCell id="WIyWlLk6GJQsqaUBKTNV-0" />
        <mxCell id="WIyWlLk6GJQsqaUBKTNV-1" parent="WIyWlLk6GJQsqaUBKTNV-0" />
        <mxCell id="yeMu2lNYIfAK3L8rKofF-0" value="Travel Package" style="swimlane;fontStyle=1;align=center;verticalAlign=top;childLayout=stackLayout;horizontal=1;startSize=26;horizontalStack=0;resizeParent=1;resizeParentMax=0;resizeLast=0;collapsible=1;marginBottom=0;whiteSpace=wrap;html=1;" vertex="1" parent="WIyWlLk6GJQsqaUBKTNV-1">
          <mxGeometry x="60" y="100" width="280" height="290" as="geometry" />
        </mxCell>
        <mxCell id="yeMu2lNYIfAK3L8rKofF-1" value="&lt;div&gt;+ ID: Integer&lt;/div&gt;&lt;div&gt;+ travelPackageName: String&lt;/div&gt;&lt;div&gt;+ totalCapacity: Integer&lt;/div&gt;&lt;div&gt;+ currentCapacity: Integer&lt;/div&gt;&lt;div&gt;&lt;br&gt;&lt;/div&gt;" style="text;strokeColor=none;fillColor=none;align=left;verticalAlign=top;spacingLeft=4;spacingRight=4;overflow=hidden;rotatable=0;points=[[0,0.5],[1,0.5]];portConstraint=eastwest;whiteSpace=wrap;html=1;" vertex="1" parent="yeMu2lNYIfAK3L8rKofF-0">
          <mxGeometry y="26" width="280" height="94" as="geometry" />
        </mxCell>
        <mxCell id="yeMu2lNYIfAK3L8rKofF-2" value="" style="line;strokeWidth=1;fillColor=none;align=left;verticalAlign=middle;spacingTop=-1;spacingLeft=3;spacingRight=3;rotatable=0;labelPosition=right;points=[];portConstraint=eastwest;strokeColor=inherit;" vertex="1" parent="yeMu2lNYIfAK3L8rKofF-0">
          <mxGeometry y="120" width="280" height="8" as="geometry" />
        </mxCell>
        <mxCell id="yeMu2lNYIfAK3L8rKofF-3" value="&lt;div&gt;+ getId(): Integer&lt;/div&gt;&lt;div&gt;+ setId(Integer): void&lt;/div&gt;&lt;div&gt;+ setTravelPackageName(String): String&lt;/div&gt;&lt;div&gt;+ getTravelPackageName(): String&lt;/div&gt;&lt;div&gt;+ getCurrentCapacty(): Integer &lt;br&gt;&lt;/div&gt;&lt;div&gt;+ setCurrentCapacity(Integer) :void&lt;/div&gt;&lt;div&gt;+ setTotalCapacity(Integer): void&lt;/div&gt;+ getTotalCapacity(): Integer " style="text;strokeColor=none;fillColor=none;align=left;verticalAlign=top;spacingLeft=4;spacingRight=4;overflow=hidden;rotatable=0;points=[[0,0.5],[1,0.5]];portConstraint=eastwest;whiteSpace=wrap;html=1;" vertex="1" parent="yeMu2lNYIfAK3L8rKofF-0">
          <mxGeometry y="128" width="280" height="162" as="geometry" />
        </mxCell>
        <mxCell id="yeMu2lNYIfAK3L8rKofF-4" value="StandardPassenger" style="swimlane;fontStyle=1;align=center;verticalAlign=top;childLayout=stackLayout;horizontal=1;startSize=26;horizontalStack=0;resizeParent=1;resizeParentMax=0;resizeLast=0;collapsible=1;marginBottom=0;whiteSpace=wrap;html=1;" vertex="1" parent="WIyWlLk6GJQsqaUBKTNV-1">
          <mxGeometry x="600" y="542" width="200" height="140" as="geometry" />
        </mxCell>
        <mxCell id="yeMu2lNYIfAK3L8rKofF-5" value="+ passengerBalance: Double" style="text;strokeColor=none;fillColor=none;align=left;verticalAlign=top;spacingLeft=4;spacingRight=4;overflow=hidden;rotatable=0;points=[[0,0.5],[1,0.5]];portConstraint=eastwest;whiteSpace=wrap;html=1;" vertex="1" parent="yeMu2lNYIfAK3L8rKofF-4">
          <mxGeometry y="26" width="200" height="44" as="geometry" />
        </mxCell>
        <mxCell id="yeMu2lNYIfAK3L8rKofF-6" value="" style="line;strokeWidth=1;fillColor=none;align=left;verticalAlign=middle;spacingTop=-1;spacingLeft=3;spacingRight=3;rotatable=0;labelPosition=right;points=[];portConstraint=eastwest;strokeColor=inherit;" vertex="1" parent="yeMu2lNYIfAK3L8rKofF-4">
          <mxGeometry y="70" width="200" height="8" as="geometry" />
        </mxCell>
        <mxCell id="yeMu2lNYIfAK3L8rKofF-7" value="&lt;div&gt;+ setPassengerBalance(Double): void&lt;/div&gt;&lt;div&gt;+ getPassengerBalance(): Double&lt;br&gt;&lt;/div&gt;" style="text;strokeColor=none;fillColor=none;align=left;verticalAlign=top;spacingLeft=4;spacingRight=4;overflow=hidden;rotatable=0;points=[[0,0.5],[1,0.5]];portConstraint=eastwest;whiteSpace=wrap;html=1;" vertex="1" parent="yeMu2lNYIfAK3L8rKofF-4">
          <mxGeometry y="78" width="200" height="62" as="geometry" />
        </mxCell>
        <mxCell id="yeMu2lNYIfAK3L8rKofF-8" value="Destination" style="swimlane;fontStyle=1;align=center;verticalAlign=top;childLayout=stackLayout;horizontal=1;startSize=26;horizontalStack=0;resizeParent=1;resizeParentMax=0;resizeLast=0;collapsible=1;marginBottom=0;whiteSpace=wrap;html=1;" vertex="1" parent="WIyWlLk6GJQsqaUBKTNV-1">
          <mxGeometry x="30" y="530" width="160" height="220" as="geometry" />
        </mxCell>
        <mxCell id="yeMu2lNYIfAK3L8rKofF-9" value="&lt;div&gt;+ ID: Integer&lt;/div&gt;&lt;div&gt;+ destinationName: String&lt;/div&gt;" style="text;strokeColor=none;fillColor=none;align=left;verticalAlign=top;spacingLeft=4;spacingRight=4;overflow=hidden;rotatable=0;points=[[0,0.5],[1,0.5]];portConstraint=eastwest;whiteSpace=wrap;html=1;" vertex="1" parent="yeMu2lNYIfAK3L8rKofF-8">
          <mxGeometry y="26" width="160" height="44" as="geometry" />
        </mxCell>
        <mxCell id="yeMu2lNYIfAK3L8rKofF-10" value="" style="line;strokeWidth=1;fillColor=none;align=left;verticalAlign=middle;spacingTop=-1;spacingLeft=3;spacingRight=3;rotatable=0;labelPosition=right;points=[];portConstraint=eastwest;strokeColor=inherit;" vertex="1" parent="yeMu2lNYIfAK3L8rKofF-8">
          <mxGeometry y="70" width="160" height="8" as="geometry" />
        </mxCell>
        <mxCell id="yeMu2lNYIfAK3L8rKofF-11" value="&lt;div&gt;+ getId(): Integer&lt;/div&gt;&lt;div&gt;+ setId(Integer): void&lt;/div&gt;&lt;div&gt;+ getDestinationName(): String&lt;/div&gt;&lt;div&gt;+ setDestinationName(String): void&lt;br&gt;&lt;/div&gt;" style="text;strokeColor=none;fillColor=none;align=left;verticalAlign=top;spacingLeft=4;spacingRight=4;overflow=hidden;rotatable=0;points=[[0,0.5],[1,0.5]];portConstraint=eastwest;whiteSpace=wrap;html=1;" vertex="1" parent="yeMu2lNYIfAK3L8rKofF-8">
          <mxGeometry y="78" width="160" height="142" as="geometry" />
        </mxCell>
        <mxCell id="yeMu2lNYIfAK3L8rKofF-12" value="Activity" style="swimlane;fontStyle=1;align=center;verticalAlign=top;childLayout=stackLayout;horizontal=1;startSize=26;horizontalStack=0;resizeParent=1;resizeParentMax=0;resizeLast=0;collapsible=1;marginBottom=0;whiteSpace=wrap;html=1;" vertex="1" parent="WIyWlLk6GJQsqaUBKTNV-1">
          <mxGeometry x="330" y="520" width="240" height="330" as="geometry" />
        </mxCell>
        <mxCell id="yeMu2lNYIfAK3L8rKofF-13" value="&lt;div&gt;+ ID: Integer&lt;/div&gt;&lt;div&gt;+ activityName: String&lt;/div&gt;&lt;div&gt;+ activityCost: Double&lt;/div&gt;&lt;div&gt;+ currentCapacity: Integer&lt;/div&gt;&lt;div&gt;+ totalCapacity: Integer&lt;br&gt;&lt;/div&gt;" style="text;strokeColor=none;fillColor=none;align=left;verticalAlign=top;spacingLeft=4;spacingRight=4;overflow=hidden;rotatable=0;points=[[0,0.5],[1,0.5]];portConstraint=eastwest;whiteSpace=wrap;html=1;" vertex="1" parent="yeMu2lNYIfAK3L8rKofF-12">
          <mxGeometry y="26" width="240" height="94" as="geometry" />
        </mxCell>
        <mxCell id="yeMu2lNYIfAK3L8rKofF-14" value="" style="line;strokeWidth=1;fillColor=none;align=left;verticalAlign=middle;spacingTop=-1;spacingLeft=3;spacingRight=3;rotatable=0;labelPosition=right;points=[];portConstraint=eastwest;strokeColor=inherit;" vertex="1" parent="yeMu2lNYIfAK3L8rKofF-12">
          <mxGeometry y="120" width="240" height="8" as="geometry" />
        </mxCell>
        <mxCell id="yeMu2lNYIfAK3L8rKofF-15" value="&lt;div&gt;+ SignUpPassenger(): boolean&lt;/div&gt;&lt;div&gt;+ getId(): Integer&lt;/div&gt;&lt;div&gt;+ setId(Integer): void&lt;/div&gt;&lt;div&gt;+ setActivityName(String): String&lt;/div&gt;&lt;div&gt;+ getActivityName(): String&lt;/div&gt;&lt;div&gt;+ setActivityCost(Integer):void&lt;/div&gt;&lt;div&gt;+ getActivityCost(): Integer&lt;/div&gt;&lt;div&gt;+ getCurrentCapacty(): Integer &lt;br&gt;&lt;/div&gt;&lt;div&gt;+ setCurrentCapacity(Integer) :void&lt;/div&gt;&lt;div&gt;+ setTotalCapacity(Integer): void&lt;/div&gt;&lt;div&gt;+ getTotalCapacity(): Integer &lt;br&gt;&lt;/div&gt;" style="text;strokeColor=none;fillColor=none;align=left;verticalAlign=top;spacingLeft=4;spacingRight=4;overflow=hidden;rotatable=0;points=[[0,0.5],[1,0.5]];portConstraint=eastwest;whiteSpace=wrap;html=1;" vertex="1" parent="yeMu2lNYIfAK3L8rKofF-12">
          <mxGeometry y="128" width="240" height="202" as="geometry" />
        </mxCell>
        <mxCell id="yeMu2lNYIfAK3L8rKofF-17" value="&lt;i&gt;&lt;b&gt;AbstractPassenger&lt;/b&gt;&lt;/i&gt;" style="swimlane;fontStyle=0;childLayout=stackLayout;horizontal=1;startSize=26;fillColor=none;horizontalStack=0;resizeParent=1;resizeParentMax=0;resizeLast=0;collapsible=1;marginBottom=0;whiteSpace=wrap;html=1;" vertex="1" parent="WIyWlLk6GJQsqaUBKTNV-1">
          <mxGeometry x="590" y="10" width="230" height="400" as="geometry" />
        </mxCell>
        <mxCell id="yeMu2lNYIfAK3L8rKofF-18" value="&lt;div&gt;+ ID: Integer&lt;/div&gt;&lt;div&gt;+ passengerType: Enum&lt;/div&gt;&lt;div&gt;+ passengerNumber: Integer&lt;/div&gt;&lt;div&gt;+ passengerName: String&lt;/div&gt;&lt;div&gt;&lt;br&gt;&lt;br&gt;&lt;/div&gt;" style="text;strokeColor=none;fillColor=none;align=left;verticalAlign=top;spacingLeft=4;spacingRight=4;overflow=hidden;rotatable=0;points=[[0,0.5],[1,0.5]];portConstraint=eastwest;whiteSpace=wrap;html=1;" vertex="1" parent="yeMu2lNYIfAK3L8rKofF-17">
          <mxGeometry y="26" width="230" height="114" as="geometry" />
        </mxCell>
        <mxCell id="yeMu2lNYIfAK3L8rKofF-28" value="" style="line;strokeWidth=1;fillColor=none;align=left;verticalAlign=middle;spacingTop=-1;spacingLeft=3;spacingRight=3;rotatable=0;labelPosition=right;points=[];portConstraint=eastwest;strokeColor=inherit;" vertex="1" parent="yeMu2lNYIfAK3L8rKofF-17">
          <mxGeometry y="140" width="230" height="30" as="geometry" />
        </mxCell>
        <mxCell id="yeMu2lNYIfAK3L8rKofF-29" value="&lt;div&gt;+ getId(): Integer&lt;/div&gt;&lt;div&gt;+ setId(Integer): void&lt;/div&gt;&lt;div&gt;+ setPassengerType(Enum): String&lt;/div&gt;&lt;div&gt;+ getPassengerType(): Enum&lt;/div&gt;&lt;div&gt;+ getPassengerNumber(): Integer &lt;br&gt;&lt;/div&gt;&lt;div&gt;+ setPassengerNumber(Integer) :void&lt;/div&gt;&lt;div&gt;+ setPassengerName(String): void&lt;/div&gt;&lt;div&gt;+ getPassengerName(): String&lt;/div&gt;&lt;div&gt;+ abstract signUpForActivity(): Boolean&lt;br&gt; &lt;/div&gt;" style="text;strokeColor=none;fillColor=none;align=left;verticalAlign=top;spacingLeft=4;spacingRight=4;overflow=hidden;rotatable=0;points=[[0,0.5],[1,0.5]];portConstraint=eastwest;whiteSpace=wrap;html=1;" vertex="1" parent="yeMu2lNYIfAK3L8rKofF-17">
          <mxGeometry y="170" width="230" height="230" as="geometry" />
        </mxCell>
        <mxCell id="yeMu2lNYIfAK3L8rKofF-21" value="&lt;p style=&quot;margin:0px;margin-top:4px;text-align:center;&quot;&gt;&amp;lt;&amp;lt;enumeration&amp;gt;&amp;gt;&lt;/p&gt;&lt;p style=&quot;margin:0px;margin-top:4px;text-align:center;&quot;&gt;&lt;b&gt;PassengerType&lt;/b&gt;&lt;br&gt;&lt;/p&gt;&lt;hr&gt;&lt;p style=&quot;margin:0px;margin-left:8px;text-align:left;&quot;&gt;GOLD&lt;br&gt;STANDARD&lt;br&gt;PREMIUM&lt;br&gt;&lt;/p&gt;" style="shape=rect;html=1;overflow=fill;whiteSpace=wrap;" vertex="1" parent="WIyWlLk6GJQsqaUBKTNV-1">
          <mxGeometry x="840" y="30" width="200" height="160" as="geometry" />
        </mxCell>
        <mxCell id="yeMu2lNYIfAK3L8rKofF-22" value="PremiumPassenger" style="swimlane;fontStyle=1;align=center;verticalAlign=top;childLayout=stackLayout;horizontal=1;startSize=26;horizontalStack=0;resizeParent=1;resizeParentMax=0;resizeLast=0;collapsible=1;marginBottom=0;whiteSpace=wrap;html=1;" vertex="1" parent="WIyWlLk6GJQsqaUBKTNV-1">
          <mxGeometry x="870" y="542" width="140" height="34" as="geometry" />
        </mxCell>
        <mxCell id="yeMu2lNYIfAK3L8rKofF-24" value="" style="line;strokeWidth=1;fillColor=none;align=left;verticalAlign=middle;spacingTop=-1;spacingLeft=3;spacingRight=3;rotatable=0;labelPosition=right;points=[];portConstraint=eastwest;strokeColor=inherit;" vertex="1" parent="yeMu2lNYIfAK3L8rKofF-22">
          <mxGeometry y="26" width="140" height="8" as="geometry" />
        </mxCell>
        <mxCell id="yeMu2lNYIfAK3L8rKofF-35" value="Extends" style="endArrow=block;endSize=16;endFill=0;html=1;rounded=0;" edge="1" parent="yeMu2lNYIfAK3L8rKofF-22" target="yeMu2lNYIfAK3L8rKofF-29">
          <mxGeometry width="160" relative="1" as="geometry">
            <mxPoint x="40" y="-2" as="sourcePoint" />
            <mxPoint x="200" y="-2" as="targetPoint" />
          </mxGeometry>
        </mxCell>
        <mxCell id="yeMu2lNYIfAK3L8rKofF-34" value="Extends" style="endArrow=block;endSize=16;endFill=0;html=1;rounded=0;" edge="1" parent="WIyWlLk6GJQsqaUBKTNV-1" source="yeMu2lNYIfAK3L8rKofF-4" target="yeMu2lNYIfAK3L8rKofF-29">
          <mxGeometry width="160" relative="1" as="geometry">
            <mxPoint x="690" y="540" as="sourcePoint" />
            <mxPoint x="686" y="420" as="targetPoint" />
          </mxGeometry>
        </mxCell>
        <mxCell id="yeMu2lNYIfAK3L8rKofF-56" value="" style="endArrow=open;endFill=1;endSize=12;html=1;rounded=0;entryX=-0.009;entryY=0.023;entryDx=0;entryDy=0;entryPerimeter=0;" edge="1" parent="WIyWlLk6GJQsqaUBKTNV-1" target="yeMu2lNYIfAK3L8rKofF-15">
          <mxGeometry width="160" relative="1" as="geometry">
            <mxPoint x="190" y="650" as="sourcePoint" />
            <mxPoint x="300" y="650" as="targetPoint" />
          </mxGeometry>
        </mxCell>
        <mxCell id="yeMu2lNYIfAK3L8rKofF-58" value="1" style="text;html=1;align=center;verticalAlign=middle;resizable=0;points=[];autosize=1;strokeColor=none;fillColor=none;" vertex="1" parent="WIyWlLk6GJQsqaUBKTNV-1">
          <mxGeometry x="185" y="628" width="30" height="30" as="geometry" />
        </mxCell>
        <mxCell id="yeMu2lNYIfAK3L8rKofF-59" value="N" style="text;html=1;align=center;verticalAlign=middle;resizable=0;points=[];autosize=1;strokeColor=none;fillColor=none;" vertex="1" parent="WIyWlLk6GJQsqaUBKTNV-1">
          <mxGeometry x="305" y="628" width="30" height="30" as="geometry" />
        </mxCell>
        <mxCell id="yeMu2lNYIfAK3L8rKofF-60" value="" style="endArrow=open;endFill=1;endSize=12;html=1;rounded=0;entryX=1;entryY=0.5;entryDx=0;entryDy=0;exitX=-0.003;exitY=0.171;exitDx=0;exitDy=0;exitPerimeter=0;" edge="1" parent="WIyWlLk6GJQsqaUBKTNV-1" source="yeMu2lNYIfAK3L8rKofF-15" target="yeMu2lNYIfAK3L8rKofF-11">
          <mxGeometry width="160" relative="1" as="geometry">
            <mxPoint x="210" y="680" as="sourcePoint" />
            <mxPoint x="370" y="680" as="targetPoint" />
          </mxGeometry>
        </mxCell>
        <mxCell id="yeMu2lNYIfAK3L8rKofF-61" value="1" style="text;html=1;align=center;verticalAlign=middle;resizable=0;points=[];autosize=1;strokeColor=none;fillColor=none;" vertex="1" parent="WIyWlLk6GJQsqaUBKTNV-1">
          <mxGeometry x="180" y="652" width="30" height="30" as="geometry" />
        </mxCell>
        <mxCell id="yeMu2lNYIfAK3L8rKofF-62" value="1" style="text;html=1;align=center;verticalAlign=middle;resizable=0;points=[];autosize=1;strokeColor=none;fillColor=none;" vertex="1" parent="WIyWlLk6GJQsqaUBKTNV-1">
          <mxGeometry x="295" y="658" width="30" height="30" as="geometry" />
        </mxCell>
        <mxCell id="yeMu2lNYIfAK3L8rKofF-64" value="1 Destination N Activity" style="text;html=1;align=center;verticalAlign=middle;resizable=0;points=[];autosize=1;strokeColor=none;fillColor=none;" vertex="1" parent="WIyWlLk6GJQsqaUBKTNV-1">
          <mxGeometry x="185" y="598" width="150" height="30" as="geometry" />
        </mxCell>
        <mxCell id="yeMu2lNYIfAK3L8rKofF-65" value="1 Activity 1 Destination" style="text;html=1;align=center;verticalAlign=middle;resizable=0;points=[];autosize=1;strokeColor=none;fillColor=none;" vertex="1" parent="WIyWlLk6GJQsqaUBKTNV-1">
          <mxGeometry x="185" y="688" width="140" height="30" as="geometry" />
        </mxCell>
        <mxCell id="yeMu2lNYIfAK3L8rKofF-66" value="" style="endArrow=open;endFill=1;endSize=12;html=1;rounded=0;entryX=0.009;entryY=0.081;entryDx=0;entryDy=0;entryPerimeter=0;" edge="1" parent="WIyWlLk6GJQsqaUBKTNV-1" source="yeMu2lNYIfAK3L8rKofF-1" target="yeMu2lNYIfAK3L8rKofF-29">
          <mxGeometry width="160" relative="1" as="geometry">
            <mxPoint x="340" y="200" as="sourcePoint" />
            <mxPoint x="500" y="200" as="targetPoint" />
          </mxGeometry>
        </mxCell>
        <mxCell id="yeMu2lNYIfAK3L8rKofF-67" value="1" style="text;html=1;align=center;verticalAlign=middle;resizable=0;points=[];autosize=1;strokeColor=none;fillColor=none;" vertex="1" parent="WIyWlLk6GJQsqaUBKTNV-1">
          <mxGeometry x="345" y="148" width="30" height="30" as="geometry" />
        </mxCell>
        <mxCell id="yeMu2lNYIfAK3L8rKofF-68" value="N" style="text;html=1;align=center;verticalAlign=middle;resizable=0;points=[];autosize=1;strokeColor=none;fillColor=none;" vertex="1" parent="WIyWlLk6GJQsqaUBKTNV-1">
          <mxGeometry x="555" y="148" width="30" height="30" as="geometry" />
        </mxCell>
        <mxCell id="yeMu2lNYIfAK3L8rKofF-69" value="" style="endArrow=open;endFill=1;endSize=12;html=1;rounded=0;entryX=0.995;entryY=0.214;entryDx=0;entryDy=0;entryPerimeter=0;exitX=0.003;exitY=0.348;exitDx=0;exitDy=0;exitPerimeter=0;" edge="1" parent="WIyWlLk6GJQsqaUBKTNV-1" source="yeMu2lNYIfAK3L8rKofF-29" target="yeMu2lNYIfAK3L8rKofF-3">
          <mxGeometry width="160" relative="1" as="geometry">
            <mxPoint x="410" y="280" as="sourcePoint" />
            <mxPoint x="570" y="280" as="targetPoint" />
          </mxGeometry>
        </mxCell>
        <mxCell id="yeMu2lNYIfAK3L8rKofF-70" value="N" style="text;html=1;align=center;verticalAlign=middle;resizable=0;points=[];autosize=1;strokeColor=none;fillColor=none;" vertex="1" parent="WIyWlLk6GJQsqaUBKTNV-1">
          <mxGeometry x="335" y="228" width="30" height="30" as="geometry" />
        </mxCell>
        <mxCell id="yeMu2lNYIfAK3L8rKofF-71" value="1" style="text;html=1;align=center;verticalAlign=middle;resizable=0;points=[];autosize=1;strokeColor=none;fillColor=none;" vertex="1" parent="WIyWlLk6GJQsqaUBKTNV-1">
          <mxGeometry x="555" y="218" width="30" height="30" as="geometry" />
        </mxCell>
        <mxCell id="yeMu2lNYIfAK3L8rKofF-72" value="1 Travel Package N Passengers" style="text;html=1;align=center;verticalAlign=middle;resizable=0;points=[];autosize=1;strokeColor=none;fillColor=none;" vertex="1" parent="WIyWlLk6GJQsqaUBKTNV-1">
          <mxGeometry x="380" y="140" width="190" height="30" as="geometry" />
        </mxCell>
        <mxCell id="yeMu2lNYIfAK3L8rKofF-73" value="1 Passenger N Travel Packages" style="text;html=1;align=center;verticalAlign=middle;resizable=0;points=[];autosize=1;strokeColor=none;fillColor=none;" vertex="1" parent="WIyWlLk6GJQsqaUBKTNV-1">
          <mxGeometry x="355" y="228" width="190" height="30" as="geometry" />
        </mxCell>
        <mxCell id="yeMu2lNYIfAK3L8rKofF-74" value="" style="endArrow=open;endFill=1;endSize=12;html=1;rounded=0;exitX=0.314;exitY=1.004;exitDx=0;exitDy=0;exitPerimeter=0;entryX=0.563;entryY=0.003;entryDx=0;entryDy=0;entryPerimeter=0;" edge="1" parent="WIyWlLk6GJQsqaUBKTNV-1" source="yeMu2lNYIfAK3L8rKofF-3" target="yeMu2lNYIfAK3L8rKofF-8">
          <mxGeometry width="160" relative="1" as="geometry">
            <mxPoint x="130" y="430" as="sourcePoint" />
            <mxPoint x="290" y="430" as="targetPoint" />
          </mxGeometry>
        </mxCell>
        <mxCell id="yeMu2lNYIfAK3L8rKofF-75" value="" style="endArrow=open;endFill=1;endSize=12;html=1;rounded=0;entryX=0.562;entryY=1.021;entryDx=0;entryDy=0;entryPerimeter=0;exitX=0.879;exitY=-0.015;exitDx=0;exitDy=0;exitPerimeter=0;" edge="1" parent="WIyWlLk6GJQsqaUBKTNV-1" source="yeMu2lNYIfAK3L8rKofF-8" target="yeMu2lNYIfAK3L8rKofF-3">
          <mxGeometry width="160" relative="1" as="geometry">
            <mxPoint x="180" y="480" as="sourcePoint" />
            <mxPoint x="340" y="480" as="targetPoint" />
          </mxGeometry>
        </mxCell>
        <mxCell id="yeMu2lNYIfAK3L8rKofF-76" value="1" style="text;html=1;align=center;verticalAlign=middle;resizable=0;points=[];autosize=1;strokeColor=none;fillColor=none;" vertex="1" parent="WIyWlLk6GJQsqaUBKTNV-1">
          <mxGeometry x="125" y="388" width="30" height="30" as="geometry" />
        </mxCell>
        <mxCell id="yeMu2lNYIfAK3L8rKofF-77" value="N" style="text;html=1;align=center;verticalAlign=middle;resizable=0;points=[];autosize=1;strokeColor=none;fillColor=none;" vertex="1" parent="WIyWlLk6GJQsqaUBKTNV-1">
          <mxGeometry x="75" y="478" width="30" height="30" as="geometry" />
        </mxCell>
        <mxCell id="yeMu2lNYIfAK3L8rKofF-78" value="1" style="text;html=1;align=center;verticalAlign=middle;resizable=0;points=[];autosize=1;strokeColor=none;fillColor=none;" vertex="1" parent="WIyWlLk6GJQsqaUBKTNV-1">
          <mxGeometry x="180" y="490" width="30" height="30" as="geometry" />
        </mxCell>
        <mxCell id="yeMu2lNYIfAK3L8rKofF-79" value="N" style="text;html=1;align=center;verticalAlign=middle;resizable=0;points=[];autosize=1;strokeColor=none;fillColor=none;" vertex="1" parent="WIyWlLk6GJQsqaUBKTNV-1">
          <mxGeometry x="225" y="398" width="30" height="30" as="geometry" />
        </mxCell>
        <mxCell id="yeMu2lNYIfAK3L8rKofF-80" value="1 Travel Package N Destination" style="text;html=1;align=center;verticalAlign=middle;resizable=0;points=[];autosize=1;strokeColor=none;fillColor=none;" vertex="1" parent="WIyWlLk6GJQsqaUBKTNV-1">
          <mxGeometry x="-40" y="418" width="190" height="30" as="geometry" />
        </mxCell>
        <mxCell id="yeMu2lNYIfAK3L8rKofF-81" value="1 Destination N Travel Package " style="text;html=1;align=center;verticalAlign=middle;resizable=0;points=[];autosize=1;strokeColor=none;fillColor=none;" vertex="1" parent="WIyWlLk6GJQsqaUBKTNV-1">
          <mxGeometry x="200" y="428" width="190" height="30" as="geometry" />
        </mxCell>
      </root>
    </mxGraphModel>
  </diagram>
</mxfile>
